<?xml version="1.0" standalone="no"?><!DOCTYPE svg PUBLIC "-//W3C//DTD SVG 1.1//EN" "http://www.w3.org/Graphics/SVG/1.1/DTD/svg11.dtd"><svg t="1702628025741" class="icon" viewBox="0 0 1024 1024" version="1.1" xmlns="http://www.w3.org/2000/svg" p-id="7858" xmlns:xlink="http://www.w3.org/1999/xlink" width="200" height="200"><path d="M170.666667 85.333333c46.250667 0 86.784 24.533333 109.269333 61.312A471.338667 471.338667 0 0 0 103.978667 322.56 128 128 0 0 1 170.666667 85.333333z m682.666666 0a128 128 0 0 1 66.688 237.269334 471.338667 471.338667 0 0 0-175.914666-175.957334A127.744 127.744 0 0 1 853.333333 85.333333zM512 170.666667a384 384 0 1 1 0 768 384 384 0 0 1 0-768z m0 170.666666a42.666667 42.666667 0 0 0-42.666667 42.666667v170.666667a42.666667 42.666667 0 0 0 42.666667 42.666666h213.333333a42.666667 42.666667 0 0 0 0-85.333333h-170.666666V384a42.666667 42.666667 0 0 0-42.666667-42.666667z" fill="#999999" p-id="7859"></path></svg>